<svg width="1652" height="265" viewBox="0 0 1652 265" fill="none" xmlns="http://www.w3.org/2000/svg">
  <g opacity="0.9">
    <path
          d="M45.9968 0.35733V148.311C45.9968 154.306 47.5507 159.044 50.6587 162.526C53.7666 165.814 57.4571 167.458 61.7301 167.458C69.8888 167.458 76.7848 163.783 82.4174 156.434L98.734 186.895C85.1372 199.273 70.7626 205.462 55.6118 205.462C40.6547 205.462 27.9317 200.53 17.4428 190.666C7.14762 180.802 2 167.361 2 150.341V0.35733H45.9968Z" />
    <path
          d="M106.026 125.102C106.026 137.867 109.62 148.311 116.807 156.434C124.188 164.363 133.512 168.329 144.778 168.329C156.239 168.329 165.562 164.363 172.75 156.434C180.131 148.311 183.822 137.867 183.822 125.102C183.822 112.338 180.131 101.894 172.75 93.7715C165.562 85.6485 156.239 81.5866 144.778 81.5866C133.512 81.5866 124.188 85.6485 116.807 93.7715C109.62 101.894 106.026 112.338 106.026 125.102ZM227.819 125.102C227.819 147.731 219.951 166.781 204.218 182.253C188.484 197.725 168.67 205.462 144.778 205.462C121.08 205.462 101.364 197.725 85.6301 182.253C69.8967 166.781 62.0293 147.731 62.0293 125.102C62.0293 102.475 69.8967 83.4239 85.6301 67.9517C101.364 52.2866 121.08 44.4533 144.778 44.4533C168.67 44.4533 188.484 52.2866 204.218 67.9517C219.951 83.4239 227.819 102.475 227.819 125.102Z" />
    <path
          d="M274.85 116.11V203.14H231.144V47.0644H274.85V64.4707C288.058 51.1255 302.918 44.4533 319.429 44.4533C335.939 44.4533 349.731 50.2557 360.803 61.8596C372.069 73.4636 377.703 88.9358 377.703 108.276V203.14H333.997V114.949C333.997 90.9667 325.159 78.9763 307.483 78.9763C298.742 78.9763 291.069 82.1668 284.465 88.5493C278.054 94.7382 274.85 103.925 274.85 116.11Z" />
    <path
          d="M462.103 169.779C470.456 169.779 478.518 167.748 486.287 163.686C494.251 159.432 500.564 153.823 505.226 146.86L530.283 173.84C510.276 194.921 487.647 205.462 462.395 205.462C437.337 205.462 417.33 197.822 402.373 182.544C387.416 167.264 379.938 147.828 379.938 124.233C379.938 100.444 388.096 81.2001 404.413 66.5017C420.923 51.8025 439.862 44.4533 461.23 44.4533C482.596 44.4533 500.467 50.4493 514.841 62.4398C529.215 74.431 536.985 89.9033 538.151 108.856V114.368L433.841 157.304C440.445 165.621 449.866 169.779 462.103 169.779ZM463.56 82.1667C452.877 82.1667 443.359 85.6485 435.007 92.6112C426.848 99.5731 422.769 109.244 422.769 121.621C422.769 123.942 422.866 125.683 423.061 126.843L491.241 99.2834C488.715 87.8723 479.488 82.1667 463.56 82.1667Z" />
    <path
          d="M584.207 0.35733V148.311C584.207 154.306 585.761 159.044 588.869 162.526C591.977 165.814 595.668 167.458 599.941 167.458C608.1 167.458 614.995 163.783 620.628 156.434L636.945 186.895C623.348 199.273 608.974 205.462 593.822 205.462C578.866 205.462 566.143 200.53 555.653 190.666C545.358 180.802 540.211 167.361 540.211 150.341V0.35733H584.207Z" />
    <path
          d="M694.66 191.536C652.509 191.536 631.434 169.102 631.434 124.233V47.0644H675.43V110.307C675.43 125.779 677.47 136.706 681.549 143.089C685.819 149.471 693.009 152.663 703.112 152.663C713.406 152.663 721.176 149.665 726.422 143.669C731.66 137.48 734.287 128.777 734.287 117.56V46.7739H778.279V177.902C778.279 205.171 771.001 226.446 756.43 241.724C742.057 257.004 723.501 264.643 700.779 264.643C683.105 264.643 667.565 260.194 654.161 251.298C640.952 242.401 631.143 229.637 624.732 213.004L662.319 196.759C669.898 217.259 682.517 227.509 700.192 227.509C711.271 227.509 720.105 223.351 726.708 215.035C733.311 206.912 736.62 196.565 736.62 183.994C736.62 182.253 736.517 180.513 736.327 178.772C724.089 187.282 710.2 191.536 694.66 191.536Z" />
    <path
          d="M931.541 44.4533C949.795 44.4533 966.017 52.093 980.199 67.3715C994.572 82.4572 1001.76 101.507 1001.76 124.522C1001.76 147.537 994.572 166.781 980.199 182.253C966.017 197.725 949.311 205.462 930.08 205.462C911.049 205.462 895.7 197.822 884.049 182.544V259.421H840.342V47.0644H884.049V64.4707C897.446 51.1255 913.279 44.4533 931.541 44.4533ZM883.462 125.393C883.462 137.964 886.961 148.311 893.954 156.434C901.144 164.363 909.787 168.329 919.882 168.329C929.985 168.329 938.826 164.363 946.398 156.434C953.977 148.311 957.763 137.964 957.763 125.393C957.763 112.821 954.072 102.281 946.692 93.7715C939.311 85.2612 930.469 81.0064 920.176 81.0064C909.882 81.0064 901.144 85.2612 893.954 93.7715C886.961 102.087 883.462 112.628 883.462 125.393Z" />
    <path
          d="M1049.25 0.35733V148.311C1049.25 154.306 1050.81 159.044 1053.92 162.526C1057.02 165.814 1060.72 167.458 1064.99 167.458C1073.15 167.458 1080.05 163.783 1085.68 156.434L1101.99 186.895C1088.4 199.273 1074.02 205.462 1058.87 205.462C1043.91 205.462 1031.19 200.53 1020.7 190.666C1010.41 180.802 1005.26 167.361 1005.26 150.341V0.35733H1049.25Z" />
    <path
          d="M1146.02 205.462C1126.01 205.462 1108.52 198.016 1093.57 183.124C1078.61 168.232 1071.14 148.698 1071.14 124.522C1071.14 100.153 1078.81 80.7167 1094.15 66.2112C1109.5 51.7057 1127.27 44.4533 1147.48 44.4533C1163.21 44.4533 1176.9 49.6755 1188.56 60.1192V47.0644H1232.56V203.14H1188.56V190.376C1176.13 200.433 1161.95 205.462 1146.02 205.462ZM1115.13 125.393C1115.13 138.157 1118.92 148.601 1126.49 156.724C1134.07 164.653 1142.91 168.618 1153.01 168.618C1163.11 168.618 1171.66 164.653 1178.65 156.724C1185.64 148.601 1189.14 138.254 1189.14 125.683C1189.14 112.918 1185.64 102.281 1178.65 93.7715C1171.66 85.2612 1163.01 81.0064 1152.72 81.0064C1142.42 81.0064 1133.59 85.2612 1126.2 93.7715C1118.82 102.087 1115.13 112.628 1115.13 125.393Z" />
    <path
          d="M1289.91 116.11V203.14H1246.2V47.0644H1289.91V64.4707C1303.11 51.1255 1317.97 44.4533 1334.48 44.4533C1350.99 44.4533 1364.79 50.2557 1375.86 61.8596C1387.12 73.4636 1392.75 88.9358 1392.75 108.276V203.14H1349.05V114.949C1349.05 90.9667 1340.21 78.9763 1322.53 78.9763C1313.79 78.9763 1306.12 82.1668 1299.52 88.5493C1293.1 94.7382 1289.91 103.925 1289.91 116.11Z" />
    <path
          d="M1477.16 169.779C1485.51 169.779 1493.57 167.748 1501.34 163.686C1509.3 159.432 1515.62 153.823 1520.28 146.86L1545.33 173.84C1525.33 194.921 1502.7 205.462 1477.44 205.462C1452.39 205.462 1432.38 197.822 1417.43 182.544C1402.47 167.264 1394.99 147.828 1394.99 124.233C1394.99 100.444 1403.15 81.2001 1419.47 66.5017C1435.98 51.8025 1454.91 44.4533 1476.28 44.4533C1497.65 44.4533 1515.52 50.4493 1529.9 62.4398C1544.27 74.431 1552.04 89.9033 1553.21 108.856V114.368L1448.9 157.304C1455.5 165.621 1464.92 169.779 1477.16 169.779ZM1478.61 82.1667C1467.93 82.1667 1458.41 85.6485 1450.06 92.6112C1441.9 99.5731 1437.82 109.244 1437.82 121.621C1437.82 123.942 1437.92 125.683 1438.11 126.843L1506.29 99.2834C1503.77 87.8723 1494.54 82.1667 1478.61 82.1667Z" />
    <path
          d="M1599.26 0.35733V47.0644H1637.13V81.0064H1599.26V148.311C1599.26 154.306 1600.82 159.044 1603.92 162.526C1607.03 165.814 1610.72 167.458 1614.99 167.458C1623.15 167.458 1630.05 163.783 1635.68 156.434L1652 186.895C1638.4 199.273 1624.02 205.462 1608.87 205.462C1593.92 205.462 1581.2 200.53 1570.71 190.666C1560.41 180.802 1555.26 167.361 1555.26 150.341V0.35733H1599.26Z" />
  </g>
</svg>