<svg width="1623" height="478" viewBox="0 0 1623 478" fill="none" xmlns="http://www.w3.org/2000/svg">
  <g opacity="0.9">
    <path fill-rule="evenodd" clip-rule="evenodd" d="M0.7274 477.279L0.3637 239L0 0.720703L166.4 1.08584L332.801 1.45098V239.365V477.279H166.764H0.7274ZM48.3318 425.805C47.2091 421.617 47.1976 53.3709 48.3203 50.4455L49.1929 48.1713H166.918H284.643V238.629V429.087L170.717 429.463C108.059 429.671 55.0782 429.642 52.9851 429.399L49.1785 428.959L48.3318 425.805ZM903.569 47.5089C891.866 50.7189 883.908 55.5519 874.038 65.4408L864.694 74.805L859.92 84.5703C857.295 89.9409 854.065 97.6951 852.743 101.801L850.34 109.267L850.392 130.112L850.442 150.956L853.04 159.581C861.626 188.088 876.365 205.533 899.195 214.207L906.383 216.938L919.321 217.012L932.258 217.083L940.373 214.322C951.795 210.433 962.66 202.691 970.642 192.753L977.482 184.235L981.712 174.065C984.037 168.471 987.048 158.426 988.401 151.741L990.859 139.588L990.077 124.428L989.296 109.267L985.581 98.1005C983.537 91.9593 979.223 82.7503 975.993 77.6355C960.035 52.3678 930.558 40.1055 903.569 47.5089ZM898.109 77.3365C901.078 75.0537 905.125 72.4532 907.101 71.5576C909.078 70.662 914.9 69.8915 920.039 69.8455L929.383 69.7621L936.64 73.9238L943.897 78.0869L947.85 83.7897C953.671 92.1893 957.105 102.393 958.856 116.484L960.411 129.001L958.876 142.772C958.032 150.347 956.346 159.491 955.131 163.093C948.473 182.828 936.272 193.348 920.039 193.348C897.248 193.348 883.05 173.358 880.382 137.512L879.456 125.08L881.175 113.58L882.896 102.08L887.804 91.7839L892.713 81.4867L898.109 77.3365ZM1282.3 131.498V214.927L1322.91 214.906C1345.25 214.893 1364.36 214.349 1365.39 213.698L1367.26 212.513L1366.83 202.579L1366.4 192.645L1338.74 192.254L1311.08 191.865L1310.71 120.377L1310.33 48.8903L1296.32 48.4792L1282.3 48.0681V131.498ZM430.554 214.208L430.183 131.19L429.813 48.1716H440.248H450.683L467.213 71.4843C476.304 84.3057 494.18 110.479 506.936 129.647L530.128 164.496L531.056 159.883C531.568 157.345 531.943 131.981 531.893 103.517C531.843 75.0537 531.824 50.9575 531.851 49.9685L531.901 48.1716H542.695H553.488L553.117 131.19L552.746 214.208L544.48 214.64C539.934 214.877 535.297 214.553 534.176 213.921C531.25 212.272 505.781 176.036 476.786 132.268C468.928 120.408 460.487 107.7 458.027 104.027L453.555 97.3486L452.836 155.779L452.118 214.208H441.336H430.554ZM678.531 69.4271V58.7993V48.1716H736.752H794.973V58.7993V69.4271L792.698 70.2997C791.448 70.7799 781.813 71.1723 771.289 71.1723H752.154L751.281 73.4465C750.801 74.6972 750.409 107.042 750.409 145.324V214.927H738.307C731.652 214.927 725.183 214.535 723.932 214.055L721.658 213.182V142.177V71.1723H702.369C691.76 71.1723 682.056 70.7799 680.805 70.2997L678.531 69.4271ZM804.258 49.9685C803.88 50.9575 803.739 88.3151 803.943 132.987L804.317 214.208H817.973H831.63L832.001 131.19L832.372 48.1716H818.659H804.945L804.258 49.9685ZM1008.45 214.208L1008.08 131.19L1007.71 48.1716H1018.26H1028.81L1035.96 58.5938C1039.89 64.3253 1049.5 78.0725 1057.32 89.1417C1065.14 100.211 1079.72 121.712 1089.72 136.921C1099.73 152.132 1108.34 164.154 1108.86 163.637C1109.37 163.119 1109.8 136.929 1109.8 105.433V48.1716H1120.58H1131.36V131.549V214.927H1122.29H1113.22L1111.04 213.13C1109.03 211.48 1104.59 205.337 1080.14 170.363C1068.01 153.023 1035.06 103.072 1034.1 100.576C1033.66 99.4259 1032.73 98.4857 1032.03 98.4857H1030.76L1030.39 156.347L1030.01 214.208H1019.23H1008.45ZM431.152 286.6C440.501 276.159 451.268 269.077 464.529 264.646L475.118 261.108L488.154 261.019L501.191 260.929L508.998 263.246C517.188 265.675 530.464 271.893 530.464 273.299C530.464 273.75 528.513 278.333 526.13 283.484L521.797 292.846L519.301 291.797C517.93 291.221 513.573 289.442 509.619 287.844L502.432 284.939L490.931 284.962L479.431 284.986L473.714 287.489C453.903 296.16 443.111 312.837 440.665 338.556L439.776 347.9L441.31 358.603L442.842 369.305L447.812 379.637L452.782 389.969L460.526 397.047L468.268 404.124L475.811 406.559C484.412 409.337 492.825 409.651 500.618 407.488L505.991 405.994L507.446 403.277L508.901 400.559V376.691V352.824L522.198 353.236L535.495 353.65L535.881 387.595L536.266 421.54L534.443 422.874C531.96 424.693 524.396 427.148 513.213 429.767L503.869 431.954L489.715 431.975L475.561 431.997L467.433 429.679C462.962 428.404 455.614 425.419 451.103 423.044L442.901 418.727L434.081 409.907L425.26 401.089L419.771 389.589C406.634 362.066 406.391 331.439 419.097 304.774L423.891 294.711L431.152 286.6ZM860.351 265.016C846.565 269.734 838.207 275.231 828.252 286.124L820.841 294.232L815.909 304.534C813.196 310.201 809.963 319.243 808.724 324.629L806.473 334.422L806.495 346.911L806.518 359.401L809.354 370.661C810.915 376.854 814.617 386.537 817.582 392.178L822.972 402.436L830.919 410.557L838.865 418.678L847.468 423.019C852.197 425.407 859.582 428.404 863.877 429.679L871.685 431.997L886.159 431.975L900.632 431.954L909.976 429.767C921.159 427.148 928.724 424.693 931.206 422.874L933.029 421.54L932.644 387.595L932.258 353.65L919.443 353.232L906.626 352.812L905.448 354.67C904.8 355.69 904.261 367.339 904.248 380.554L904.226 404.583L900.992 406.42L897.757 408.256L886.257 408.224L874.757 408.191L868.072 404.909C855.673 398.821 845.678 386.37 840.192 370.182L837.513 362.276V345.744V329.212L840.196 321.306C845.835 304.699 854.772 294.449 869.175 288.07L876.194 284.962L887.695 284.95L899.195 284.939L906.383 287.844C910.336 289.442 914.693 291.221 916.065 291.797L918.56 292.846L923.038 283.172L927.516 273.496L925.574 272.187C920.6 268.837 912.893 265.358 905.762 263.243L897.954 260.929L884.917 260.999L871.881 261.069L860.351 265.016ZM1510.33 315.492C1519.72 288.741 1536.67 271.947 1562.62 263.703L1570.53 261.19L1582.53 261.059L1594.53 260.929L1602.3 263.188C1610.92 265.696 1623 271.973 1623 273.948C1623 275.275 1616.14 291.265 1615.15 292.263C1614.83 292.576 1610.16 291.035 1604.77 288.839L1594.97 284.844L1584.83 284.871L1574.69 284.898L1566.86 288.524C1552.1 295.362 1542.43 308.189 1537.96 326.872C1533.32 346.241 1535.28 364.531 1543.79 381.391L1547.98 389.694L1554.63 395.821C1558.28 399.19 1564.33 403.319 1568.06 404.995L1574.84 408.043L1586.34 408.046L1597.84 408.049L1606.28 404.761L1614.72 401.473L1615.96 403.438C1618.42 407.313 1621.81 419.205 1621.04 421.224C1620.2 423.416 1613.42 426.674 1602.87 429.954L1596.41 431.965L1583.69 431.981L1570.97 431.997L1562.84 429.658C1552.18 426.589 1544.89 422.883 1535.64 415.824L1528.07 410.043L1520.95 399.406L1513.84 388.768L1510.01 376.96L1506.18 365.151L1506.1 346.463L1506.02 327.775L1510.33 315.492ZM562.09 346.463V429.122H604.498H646.905V418.372V407.62L619.232 407.231L591.56 406.84V380.964V355.088L613.024 354.688L634.488 354.289L636.444 352.666L638.401 351.041L637.981 341.565L637.561 332.087L614.56 331.368L591.56 330.65V308.368V286.086L614.92 285.69L638.28 285.295V274.549V263.804H600.185H562.09V346.463ZM1315.36 429.122V346.463V263.804H1329.74H1344.12V295.46V327.115L1373.23 326.727L1402.34 326.337L1402.72 295.019L1403.11 263.7L1417.1 264.111L1431.09 264.522L1431.46 346.822L1431.83 429.122H1417.47H1403.1L1402.72 389.948L1402.34 350.775L1373.23 350.386L1344.12 349.998V389.559V429.122H1329.74H1315.36ZM1459.12 346.463V429.122H1472.78H1486.43V346.463V263.804H1472.78H1459.12V346.463ZM611.425 70.0942C602.64 95.9801 592.74 124.766 575.705 173.957C568.859 193.723 563.157 210.866 563.033 212.052L562.809 214.208H574.255H585.699L587.52 210.614C588.522 208.638 592.004 198.448 595.257 187.973L601.171 168.926H625.425H649.68L651.021 171.441C652.193 173.639 656.731 188.846 661.639 207.021C662.493 210.183 663.894 213.247 664.752 213.827C666.81 215.22 693.994 215.239 694.797 213.849C695.139 213.257 694.275 209.213 692.877 204.864C691.478 200.516 686.642 185.314 682.131 171.082C667.32 124.35 665.294 118.002 661.941 107.83C660.116 102.295 655.63 88.0635 651.971 76.2037C648.311 64.344 644.719 53.1843 643.986 51.406L642.654 48.1716H630.759H618.864L611.425 70.0942ZM623.988 95.6106C625.03 91.262 626.57 86.7942 627.409 85.6829L628.936 83.6632L629.438 86.4017C629.926 89.0669 637.787 117.806 641.982 132.268C643.129 136.221 644.467 141.559 644.956 144.128L645.844 148.8H627.687H609.529V147.344C609.529 146.543 612.355 136.355 615.811 124.702C619.266 113.051 622.946 99.9592 623.988 95.6106ZM677.171 283.54C685.715 273.954 693.222 268.726 704.722 264.353L713.751 260.92L728.258 261.311L742.764 261.703L753.683 267.1L764.603 272.497L772.648 280.606L780.692 288.715L786.422 300.339L792.152 311.962L794.426 322.743L796.701 333.525L795.954 350.775L795.208 368.026L792.093 378.089C783.997 404.241 766.501 423.637 745.495 429.744L737.747 431.997H725.571H713.393L707.104 429.826C695.673 425.883 688.662 421.563 680.596 413.498L672.627 405.53L666.962 393.965C663.845 387.605 660.211 378.197 658.886 373.057L656.476 363.713L656.44 345.744L656.406 327.775L658.897 318.431C662.34 305.513 669.115 292.578 677.171 283.54ZM717.676 285.271C707.712 287.778 699.429 295.434 693.052 308.033L689.948 314.167L687.565 328.689L685.18 343.211L686.891 356.753C687.832 364.201 689.954 374.308 691.606 379.214C699.922 403.901 719.846 414.832 739.686 405.593C750.673 400.477 756.964 391.981 762.184 375.214L764.868 366.588L765.745 352.152L766.621 337.717L764.922 327.964C760.286 301.34 748.262 286.725 729.413 284.805C725.543 284.409 720.262 284.619 717.676 285.271ZM1190.29 67.2708C1193.33 58.404 1196.25 50.4544 1196.77 49.6048L1197.72 48.0594L1209.36 48.4749L1221 48.8903L1225.83 63.9846C1228.49 72.2864 1234.23 90.3995 1238.6 104.236C1242.97 118.072 1247.42 131.981 1248.49 135.143C1249.56 138.306 1253.49 150.597 1257.21 162.457C1260.94 174.316 1266.1 190.489 1268.67 198.395C1271.24 206.302 1273.05 213.257 1272.7 213.849C1272.35 214.441 1265.38 214.927 1257.21 214.927H1242.36L1241.37 212.411C1240.83 211.027 1238.17 202.133 1235.46 192.645C1232.75 183.157 1229.91 173.94 1229.14 172.16L1227.74 168.926H1203.35H1178.96L1172.41 189.442C1168.81 200.726 1165.86 210.683 1165.86 211.57C1165.86 212.456 1164.84 213.574 1163.59 214.055C1160.2 215.355 1141.7 215.11 1140.87 213.753C1140.47 213.106 1141.15 209.71 1142.38 206.205C1143.61 202.701 1148.06 189.806 1152.28 177.551C1156.49 165.296 1165.52 139.096 1172.35 119.33C1179.18 99.5639 1187.25 76.1376 1190.29 67.2708ZM1203.41 89.3185C1198.24 108.942 1195.73 117.858 1192.34 128.674C1190.24 135.395 1188.2 142.672 1187.81 144.847L1187.1 148.8H1205.23H1223.36L1223.34 147.003C1223.33 146.015 1221.68 139.384 1219.66 132.268C1213.72 111.286 1211.72 104.015 1209.4 94.8918C1208.2 90.1479 1206.69 85.6987 1206.05 85.0058L1204.88 83.7451L1203.41 89.3185ZM1203.24 346.343V429.122H1217.61H1231.99V398.214V367.307H1240.54C1267.87 367.307 1286.73 354.848 1296.04 330.65L1298.8 323.462L1298.68 309.805L1298.57 296.149L1295.67 289.668C1291.35 280.032 1285.81 274.243 1276 269.134L1267.21 264.553L1235.22 264.058L1203.24 263.565V346.343ZM1231.99 316.707C1231.99 300.524 1232.47 286.792 1233.07 286.191C1234.78 284.45 1252.42 286.007 1257.01 288.305C1259.31 289.457 1263.19 292.884 1265.64 295.923L1270.08 301.447V312.455V323.462L1266.79 330.134L1263.51 336.807L1257.52 340.769L1251.53 344.732L1241.76 345.431L1231.99 346.131V316.707ZM958.853 346.343V429.122H973.2H987.547L987.935 398.574L988.323 368.026H994.542H1000.76L1006.91 382.401C1010.29 390.308 1014.67 400.335 1016.63 404.683C1018.59 409.032 1021.72 416.322 1023.58 420.884L1026.97 429.178L1056.34 428.791L1085.71 428.403L1090.69 412.59C1093.43 403.893 1096.52 394.189 1097.56 391.027L1099.44 385.276L1124.46 384.885L1149.48 384.493L1152.08 393.511C1153.51 398.469 1156.42 408.349 1158.54 415.465L1162.41 428.403L1178.37 428.808L1194.34 429.214L1191.48 420.183C1189.91 415.216 1186.79 405.33 1184.56 398.214C1182.32 391.099 1177.79 376.867 1174.5 366.588C1168.07 346.56 1150.43 291.139 1145.2 274.585L1142.02 264.522L1129.58 264.108L1117.13 263.694L1115.02 270.577C1113.86 274.362 1108.31 290.722 1102.68 306.93C1097.06 323.138 1089.56 344.81 1086.02 355.088C1082.48 365.366 1075.47 385.715 1070.44 400.309C1065.41 414.901 1060.72 427.031 1060.02 427.264C1059.32 427.499 1057.82 425.585 1056.69 423.015C1055.56 420.443 1048.61 405.961 1041.24 390.831C1033.88 375.701 1027.86 362.825 1027.86 362.217C1027.86 361.61 1031.62 357.703 1036.23 353.534L1044.61 345.952L1049.53 336.145L1054.45 326.337L1054.43 311.243L1054.41 296.149L1051.4 289.606C1047.01 280.055 1040.25 273.082 1030.99 268.546L1022.82 264.547L990.839 264.055L958.853 263.565V346.343ZM1111.07 350.653C1114.64 339.439 1121.2 316.726 1124.3 304.824L1126.16 297.687L1127.97 301.949C1128.97 304.294 1129.82 307.228 1129.86 308.471C1129.89 309.713 1130.84 313.595 1131.96 317.096C1137.6 334.731 1144.44 361.602 1143.62 362.928L1142.69 364.432H1125.52H1108.36V361.794C1108.36 360.344 1109.58 355.329 1111.07 350.653ZM988.307 287.045C987.886 288.146 987.716 301.641 987.932 317.035L988.323 345.025L997.937 344.916L1007.55 344.807L1013.5 340.869L1019.45 336.933L1022.92 329.48L1026.39 322.024L1026.4 313.344L1026.42 304.665L1023.18 298.334L1019.95 292.003L1014.2 289.073L1008.45 286.143L998.762 285.594L989.075 285.045L988.307 287.045Z"/>
  </g>
</svg>
