<svg width="1646" height="593" viewBox="0 0 1646 593" fill="none" xmlns="http://www.w3.org/2000/svg">
  <g opacity="0.9">
    <path fill-rule="evenodd" clip-rule="evenodd" d="M1.11199 78.836L1.23197 157.444H56.0072H110.782V78.9564V0.468944L55.8872 0.348486L0.992004 0.228027L1.11199 78.836ZM16.9328 16.6321C16.5624 17.5972 16.5662 139.081 16.9366 140.463L17.2159 141.503L18.4717 141.648C19.1622 141.728 36.6405 141.738 57.3114 141.67L94.8953 141.545V78.7136V15.8819H56.058H17.2207L16.9328 16.6321ZM2.34021 229.682V264.013L5.35569 263.124C7.01488 262.635 14.1006 260.991 21.1032 259.47L33.8353 256.705L60.6395 256.517L87.4438 256.329L87.4345 407.774L87.4251 559.218L85.0837 572.62C83.7958 579.991 82.3725 587.38 81.9208 589.038L81.1006 592.053H132.854H184.609V590.378C184.609 589.456 183.591 584.48 182.346 579.321L180.082 569.94L179.604 412.607L179.125 255.272L206.326 256.091L233.527 256.908L245.589 259.57C252.223 261.035 259.007 262.634 260.667 263.123L263.682 264.013V229.682V195.35H133.011H2.34021V229.682ZM290.978 198.927C291.445 201.014 292.877 208.149 294.163 214.783L296.499 226.845L296.508 393.702L296.517 560.558L294.252 571.95C293.006 578.216 291.573 585.301 291.069 587.698L290.151 592.053H338.053H385.954L385.065 589.038C384.576 587.38 383.172 580.594 381.943 573.96L379.71 561.899L379.66 501.589L379.611 441.279L395.394 441.616L411.178 441.951L418.75 444.612C429.239 448.299 435.766 453.169 441.003 461.217C449.002 473.506 450.874 481.311 455.992 523.702C460.494 560.991 465.78 580.597 473.789 589.708L475.851 592.053H567.592H659.332L658.65 590.276C658.275 589.299 657.539 584.485 657.014 579.579L656.058 570.657L657.64 556.896C659.728 538.714 662.31 525.498 668.054 503.599C670.665 493.648 673.198 483.697 673.685 481.486L674.568 477.465H729.983H785.398L790.586 497.568C796.807 521.683 800.342 539.69 802.505 558.299L804.112 572.122L803.204 579.072C802.706 582.894 801.966 587.38 801.558 589.038L800.817 592.053H851.892H902.964V590.66C902.964 589.893 901.836 587.029 900.456 584.294C897.913 579.253 892.996 565.279 889.041 551.847C886.926 544.667 882.253 528.358 872.526 494.218C867.311 475.912 860.773 453.132 854.45 431.228C852.216 423.488 849.917 415.346 849.344 413.135C848.77 410.923 846.133 401.701 843.483 392.643C838.024 373.98 821.355 313.07 818.097 299.887C809.211 263.922 797.122 204.337 797.092 196.355C797.089 195.801 766.933 195.35 730.077 195.35C693.221 195.35 663.065 195.501 663.062 195.685C663.061 195.868 661.876 203.147 660.43 211.857C651.74 264.225 640.194 310.238 604.713 433.908C590.227 484.401 578.066 526.919 577.688 528.393C575.873 535.472 568.743 558.996 565.592 568.295L562.065 578.713L560.652 578.242C556.212 576.762 548.779 542.548 547.201 516.331C545.311 484.943 540.215 462.103 531.426 445.613L527.286 437.844L519.047 430.181L510.808 422.516L502.037 418.205C497.213 415.834 491.63 413.271 489.632 412.511L485.997 411.13L486.826 409.787C487.282 409.048 488.904 408.444 490.428 408.444C491.953 408.444 497.013 406.566 501.673 404.273L510.146 400.101L518.096 391.821L526.048 383.541L530.887 373.931C537.485 360.83 541.964 344.609 544.592 324.298L546.798 307.258L545.135 294.142L543.472 281.027L539.142 268.428C525.33 228.245 501.586 209.225 452.652 199.145L438.58 196.246L364.356 195.689L290.133 195.131L290.978 198.927ZM838.634 195.854C838.634 196.13 840.102 199.675 841.896 203.731C843.69 207.787 847.926 220.377 851.309 231.707C859.678 259.735 860.212 261.591 869.525 295.196C874.02 311.412 881.926 339.758 887.095 358.186C892.263 376.614 896.971 393.5 897.557 395.712C898.142 397.923 901.669 410.588 905.393 423.856C912.33 448.571 926.412 505.203 930.385 524.372C931.608 530.269 933.16 537.507 933.834 540.455C935.191 546.399 938.358 564.221 940.976 580.661L942.683 591.383L1000.29 591.732L1057.89 592.081L1060.28 576.715C1062.46 562.752 1068.39 532.427 1073.65 508.29C1076.52 495.117 1089.96 442.633 1095.96 421.176C1097.6 415.279 1099.43 408.645 1100.01 406.434C1100.6 404.222 1103.89 392.462 1107.34 380.299C1113.74 357.709 1116.85 346.558 1118.76 339.423C1119.35 337.211 1122.66 325.451 1126.1 313.289C1132.5 290.698 1135.62 279.547 1137.52 272.412C1146.45 239.042 1153.38 216.49 1158.42 204.436C1160.18 200.22 1161.63 196.451 1161.63 196.06C1161.63 195.67 1139.46 195.351 1112.37 195.351L1063.12 195.354L1063.01 217.8L1062.9 240.247L1060.07 254.319C1057.61 266.51 1054.42 278.712 1045.86 308.598C1044.81 312.283 1041.11 325.552 1037.65 338.083C1031.31 361.046 1022.66 392.14 1018.83 405.763C1017.69 409.818 1016.17 415.245 1015.46 417.825C1014.75 420.405 1011.46 432.162 1008.15 443.95C1004.85 455.74 1002.14 466.143 1002.14 467.069C1002.14 467.995 1001.56 468.754 1000.86 468.754C999.338 468.754 998.969 467.563 965.523 354.835C964.278 350.64 963.088 346.63 961.951 342.797C941.646 274.38 938.019 262.158 935.99 249.677C935.549 246.962 935.183 244.234 934.738 240.913C934.624 240.063 934.505 239.174 934.378 238.237L932.107 221.484L932.822 208.417L933.536 195.35H886.086C859.988 195.35 838.634 195.576 838.634 195.854ZM1168.87 198.365C1169.34 200.024 1170.76 206.507 1172.04 212.773L1174.36 224.164V393.702V563.239L1172.05 574.254C1170.78 580.312 1169.36 586.796 1168.89 588.661L1168.04 592.053H1278.08H1388.12V555.053V518.051L1384.82 518.879C1365.24 523.795 1323.7 526.845 1286.27 526.116L1265.49 525.713L1265.14 474.272L1264.79 422.831L1308.03 423.547C1331.81 423.941 1354.58 424.875 1358.64 425.623C1362.69 426.371 1368.27 427.297 1371.03 427.68L1376.06 428.378V390.792V353.204L1372.62 354.067C1362.41 356.63 1345.72 357.749 1307.36 358.443L1264.79 359.214L1265.14 307.772L1265.49 256.329L1299.32 256.583L1333.15 256.837L1350.92 258.911C1360.69 260.053 1370.8 261.597 1373.37 262.343C1375.95 263.09 1378.81 263.701 1379.74 263.701H1381.42V229.525V195.35H1274.72H1168.01L1168.87 198.365ZM1420.29 197.217C1420.29 198.243 1421.34 203.823 1422.63 209.614L1424.98 220.144V394.372V568.6L1422.18 580.326L1419.38 592.053H1532.41H1645.44V555.868V519.682H1644.22C1643.55 519.682 1638.3 520.581 1632.55 521.68C1626.81 522.779 1614.24 524.315 1604.63 525.094L1587.14 526.51L1552.3 526.111L1517.45 525.713L1517.48 375.609L1517.5 225.505L1519.81 213.443C1521.08 206.809 1522.5 200.024 1522.96 198.365L1523.8 195.35H1472.04H1420.29V197.217ZM384.636 256.63L378.941 257.154V320.189V383.225L398.709 382.693L418.477 382.161L426.186 379.123C430.426 377.451 436.759 373.801 440.258 371.009L446.621 365.935L451.171 358.325C453.674 354.14 456.883 346.667 458.304 341.719L460.889 332.722L461.076 316.639L461.263 300.557L458.76 293.185C455.474 283.51 451.682 277.66 444.283 270.851C436.834 263.996 432.705 261.804 422.439 259.254C413.938 257.143 394.061 255.764 384.636 256.63ZM728.779 273.24C728.605 276.622 717.397 322.899 714.832 330.828C713.064 336.292 709.107 348.905 706.039 358.856C702.971 368.807 699.627 379.361 698.607 382.31C695.116 392.403 688.702 414.472 687.793 419.519L686.884 424.564L729.589 424.21L772.294 423.856L771.941 419.408C771.633 415.52 766.73 397.804 753.517 352.825C744.306 321.469 732.757 280.465 732.757 279.117C732.757 277.553 728.855 271.786 728.779 273.24ZM948.43 27.2549C941.311 29.9619 936.664 33.1983 931.375 39.1319C926.388 44.7265 922.195 52.7336 920.063 60.7299L918.521 66.5141L918.542 77.6374L918.565 88.7607L920.056 94.5449C920.877 97.7262 923.126 103.55 925.055 107.487L928.562 114.646L933.495 119.579C938.488 124.571 942.828 127.245 949.904 129.686L953.797 131.029H961.335H968.872L973.669 129.635C986.672 125.855 997.502 113.848 1002.51 97.6594L1004.44 91.4303L1004.9 80.7519L1005.37 70.0735L1003.96 63.3995L1002.55 56.7255L999.003 49.5309L995.456 42.3355L990.477 37.3157L985.497 32.296L978.738 28.9554L971.978 25.6149L962.998 25.3719L954.019 25.1299L948.43 27.2549ZM941.206 54.2935C945.153 46.4947 950.28 41.7553 956.448 40.2033C958.049 39.8002 961.318 39.6703 963.714 39.915C975.382 41.1039 982.825 50.1503 985.695 66.6315L986.746 72.6684L986.204 81.6044L985.661 90.5405L983.999 95.8797C980.768 106.259 976.874 111.518 970.073 114.685C957.792 120.404 945.458 113.638 940.31 98.3562C939.288 95.3191 937.974 89.0624 937.392 84.452L936.333 76.0695L937.809 67.08L939.284 58.0906L941.206 54.2935ZM779.085 41.0265C784.872 34.5634 791.537 30.179 799.746 27.4364L806.301 25.2464L814.37 25.1913L822.44 25.1352L827.273 26.5697C832.343 28.0736 840.561 31.9222 840.561 32.7925C840.561 33.0719 839.353 35.9088 837.878 39.0972L835.196 44.8929L833.651 44.2433C832.802 43.8865 830.105 42.7857 827.658 41.7962L823.208 39.9978L816.089 40.012L808.97 40.0271L805.431 41.5764C793.168 46.9441 786.488 57.2674 784.973 73.1881L784.423 78.9722L785.373 85.5973L786.322 92.2223L789.398 98.6178L792.474 105.013L797.268 109.395L802.061 113.776L806.73 115.283C812.054 117.002 817.261 117.197 822.085 115.858L825.412 114.934L826.312 113.252L827.213 111.569V96.7945V82.02L835.444 82.2754L843.675 82.5317L843.914 103.544L844.152 124.557L843.024 125.382C841.487 126.508 836.805 128.028 829.882 129.649L824.098 131.003L815.336 131.016L806.575 131.029L801.544 129.595C798.776 128.806 794.227 126.957 791.435 125.487L786.358 122.815L780.898 117.356L775.438 111.897L772.04 104.778C763.908 87.741 763.757 68.7823 771.623 52.2762L774.59 46.0471L779.085 41.0265ZM680.873 79.5632V131.208L706.012 131.194C719.839 131.186 731.671 130.85 732.307 130.447L733.463 129.714L733.196 123.564L732.93 117.415L715.808 117.173L698.687 116.931L698.456 72.6792L698.226 28.4279L689.549 28.1734L680.873 27.9189V79.5632ZM153.627 130.763L153.397 79.3728L153.168 27.983H159.627H166.087L176.319 42.414C181.947 50.3507 193.012 66.5525 200.908 78.418L215.264 99.9902L215.839 97.1346C216.156 95.5631 216.388 79.8623 216.357 62.2429C216.326 44.6235 216.314 29.7075 216.331 29.0953L216.362 27.983H223.043H229.725L229.495 79.3728L229.265 130.763L224.149 131.03C221.335 131.176 218.464 130.976 217.77 130.585C215.959 129.564 200.193 107.133 182.245 80.0402C177.381 72.6988 172.156 64.8324 170.633 62.5588L167.865 58.4244L167.42 94.594L166.975 130.763H160.301H153.627ZM307.129 41.1406V34.5618V27.983H343.168H379.208V34.5618V41.1406L377.8 41.6807C377.026 41.9779 371.062 42.2209 364.548 42.2209H352.703L352.162 43.6286C351.865 44.4028 351.622 64.4248 351.622 88.122V131.208H344.131C340.011 131.208 336.007 130.965 335.233 130.667L333.825 130.127V86.1741V42.2209H321.885C315.317 42.2209 309.311 41.9779 308.537 41.6807L307.129 41.1406ZM384.956 29.0953C384.722 29.7075 384.634 52.8325 384.761 80.4852L384.992 130.763H393.446H401.9L402.129 79.3728L402.359 27.983H393.87H385.381L384.956 29.0953ZM511.353 130.763L511.124 79.3728L510.894 27.983H517.427H523.959L528.385 34.4345C530.818 37.9824 536.768 46.4922 541.606 53.3442C546.444 60.1962 555.469 73.5059 561.664 82.9207C567.857 92.3364 573.187 99.7784 573.507 99.458C573.827 99.1377 574.089 82.9252 574.089 63.4291V27.983H580.763H587.437V79.5953V131.208H581.823H576.209L574.858 130.095C573.617 129.074 570.87 125.271 555.729 103.622C548.222 92.8881 527.825 61.967 527.232 60.4222C526.959 59.7103 526.382 59.1283 525.951 59.1283H525.167L524.934 94.9455L524.701 130.763H518.027H511.353ZM1044.77 27.6651C1036.23 30.5857 1031.06 33.9885 1024.9 40.7319L1020.31 45.7508L1017.26 52.1276C1015.58 55.6354 1013.58 61.2327 1012.81 64.567L1011.42 70.6288L1011.43 78.36L1011.44 86.0911L1013.2 93.0615C1014.17 96.895 1016.46 102.889 1018.29 106.381L1021.63 112.731L1026.55 117.758L1031.47 122.785L1036.79 125.472C1039.72 126.95 1044.29 128.806 1046.95 129.595L1051.78 131.029L1060.74 131.016L1069.7 131.003L1075.49 129.649C1082.41 128.028 1087.09 126.508 1088.63 125.382L1089.76 124.557L1089.52 103.544L1089.28 82.5317L1081.35 82.2727L1073.41 82.0129L1072.68 83.1626C1072.28 83.7944 1071.95 91.005 1071.94 99.1855L1071.93 114.06L1069.92 115.197L1067.92 116.333L1060.8 116.314L1053.68 116.293L1049.55 114.262C1041.87 110.493 1035.68 102.786 1032.29 92.7651L1030.63 87.8709V77.6374V67.4039L1032.29 62.5096C1035.78 52.2299 1041.31 45.8852 1050.23 41.9359L1054.57 40.012L1061.69 40.0049L1068.81 39.9978L1073.26 41.7962C1075.71 42.7857 1078.41 43.8865 1079.25 44.2433L1080.8 44.8929L1083.57 38.9041L1086.34 32.9144L1085.14 32.1047C1082.06 30.0304 1077.29 27.8769 1072.88 26.5679L1068.04 25.1352L1059.97 25.1788L1051.9 25.2224L1044.77 27.6651ZM1447.11 58.911C1452.93 42.3515 1463.42 31.956 1479.49 26.8527L1484.38 25.2972L1491.81 25.2162L1499.23 25.1352L1504.04 26.5341C1509.38 28.086 1516.86 31.9721 1516.86 33.1947C1516.86 34.0161 1512.62 43.9141 1512 44.5317C1511.8 44.7256 1508.91 43.7717 1505.58 42.412L1499.51 39.9391L1493.23 39.956L1486.95 39.9729L1482.11 42.2171C1472.97 46.4502 1466.98 54.3905 1464.22 65.9552C1461.35 77.9453 1462.56 89.2671 1467.83 99.7034L1470.42 104.843L1474.54 108.636C1476.8 110.722 1480.54 113.277 1482.85 114.315L1487.05 116.202L1494.17 116.203L1501.29 116.205L1506.51 114.17L1511.73 112.135L1512.5 113.351C1514.02 115.75 1516.13 123.111 1515.65 124.361C1515.13 125.718 1510.93 127.734 1504.4 129.765L1500.4 131.01L1492.53 131.02L1484.65 131.029L1479.62 129.582C1473.02 127.682 1468.51 125.388 1462.78 121.018L1458.1 117.439L1453.69 110.855L1449.29 104.27L1446.92 96.9609L1444.54 89.6506L1444.49 78.0823L1444.44 66.5141L1447.11 58.911ZM860.138 78.0823V129.25H886.389H912.64V122.595V115.94L895.51 115.699L878.38 115.457V99.4391V83.4215L891.667 83.1741L904.953 82.9268L906.164 81.9221L907.375 80.9166L907.116 75.0506L906.856 69.1837L892.618 68.7387L878.38 68.2938V54.5008V40.7079L892.84 40.4632L907.301 40.2185V33.5667V26.915H883.719H860.138V78.0823ZM1326.43 129.25V78.0823V26.915H1335.33H1344.23V46.5107V66.1056L1362.25 65.8653L1380.27 65.6242L1380.51 46.2375L1380.75 26.8509L1389.4 27.1054L1398.06 27.3599L1398.29 78.3048L1398.52 129.25H1389.63H1380.74L1380.5 105.001L1380.27 80.7519L1362.25 80.5108L1344.23 80.2705V104.76V129.25H1335.33H1326.43ZM1415.42 78.0823V129.25H1423.87H1432.32V78.0823V26.915H1423.87H1415.42V78.0823ZM428.151 38.673C434.261 32.5516 439.187 29.5598 446.431 27.5727C463.138 22.9899 481.384 30.5805 491.263 46.2217C493.262 49.3878 495.933 55.0883 497.198 58.8899L499.498 65.8023L499.981 75.1869L500.465 84.5714L498.943 92.0944C498.106 96.2323 496.243 102.451 494.803 105.913L492.185 112.209L487.951 117.481C483.009 123.633 476.284 128.426 469.214 130.833L464.19 132.542L456.182 132.498L448.173 132.453L443.724 130.762C429.592 125.392 420.468 114.594 415.153 96.9477L413.545 91.6085L413.513 78.7054L413.481 65.8023L414.969 61.1804C415.787 58.6389 417.786 53.839 419.411 50.5144L422.367 44.4696L428.151 38.673ZM448.618 42.4593C447.394 43.0137 444.889 44.6235 443.052 46.0366L439.711 48.6057L436.672 54.9798L433.634 61.353L432.569 68.4719L431.505 75.5909L432.078 83.2865C433.729 105.475 442.519 117.85 456.627 117.85C466.675 117.85 474.227 111.338 478.349 99.1217C479.101 96.8916 480.145 91.2312 480.667 86.5425L481.618 78.0175L480.655 70.2695C479.571 61.547 477.445 55.2307 473.842 50.0312L471.395 46.5011L466.903 43.9241L462.411 41.3479L456.627 41.3995C453.445 41.428 449.841 41.905 448.618 42.4593ZM265.589 41.5535C260.151 57.5773 254.022 75.396 243.478 105.846C239.24 118.082 235.71 128.694 235.633 129.428L235.495 130.763H242.58H249.664L250.791 128.538C251.412 127.314 253.567 121.007 255.581 114.523L259.242 102.732H274.255H289.269L290.099 104.289C290.825 105.65 293.634 115.063 296.672 126.313C297.201 128.271 298.068 130.167 298.599 130.527C299.873 131.389 316.7 131.401 317.198 130.54C317.41 130.174 316.875 127.67 316.009 124.979C315.143 122.287 312.149 112.876 309.357 104.067C300.189 75.1388 298.935 71.2092 296.859 64.9125C295.73 61.4865 292.952 52.6768 290.688 45.3354C288.422 37.994 286.198 31.0859 285.744 29.9852L284.92 27.983H277.557H270.194L265.589 41.5535ZM273.366 57.3486C274.011 54.6567 274.964 51.891 275.483 51.2032L276.428 49.9529L276.739 51.6481C277.042 53.2979 281.907 71.0882 284.504 80.0402C285.214 82.4874 286.043 85.7914 286.345 87.3816L286.895 90.2737H275.655H264.415V89.3723C264.415 88.8766 266.165 82.5701 268.304 75.3568C270.442 68.1445 272.72 60.0404 273.366 57.3486ZM1257.02 129.25V78.0085V26.7672L1276.82 27.0725L1296.62 27.3786L1302.06 30.2146C1308.13 33.3772 1311.56 36.9607 1314.23 42.9254L1316.03 46.937L1316.1 55.3907L1316.18 63.8444L1314.46 68.2938C1308.7 83.2729 1297.03 90.9854 1280.11 90.9854H1274.82V110.118V129.25H1265.92H1257.02ZM1275.48 40.7729C1275.12 41.1448 1274.82 49.6457 1274.82 59.663V77.8768L1280.87 77.4434L1286.91 77.0109L1290.62 74.5576L1294.33 72.1051L1296.36 67.9743L1298.4 63.8444V57.0307V50.217L1295.65 46.7973C1294.13 44.9161 1291.73 42.7946 1290.31 42.0819C1287.46 40.659 1276.55 39.6952 1275.48 40.7729ZM1105.74 129.25V78.0085V26.7672L1125.54 27.0707L1145.34 27.375L1150.4 29.8506C1156.13 32.6581 1160.31 36.9749 1163.03 42.8872L1164.89 46.937L1164.9 56.2806L1164.92 65.6242L1161.87 71.6957L1158.83 77.7664L1153.64 82.4596C1150.79 85.0402 1148.45 87.4589 1148.45 87.8344C1148.45 88.2108 1152.18 96.1814 1156.74 105.547C1161.3 114.913 1165.6 123.878 1166.3 125.47C1167 127.061 1167.93 128.245 1168.37 128.1C1168.8 127.956 1171.7 120.447 1174.82 111.414C1177.93 102.38 1182.27 89.7841 1184.46 83.4215C1186.65 77.059 1191.29 63.6442 1194.77 53.611C1198.26 43.5777 1201.69 33.451 1202.41 31.108L1203.72 26.8473L1211.42 27.1036L1219.13 27.3599L1221.09 33.589C1224.33 43.8358 1235.25 78.1428 1239.23 90.5405C1241.27 96.903 1244.07 105.713 1245.46 110.118C1246.84 114.522 1248.77 120.642 1249.74 123.717L1251.51 129.307L1241.63 129.056L1231.74 128.805L1229.35 120.796C1228.04 116.391 1226.24 110.275 1225.35 107.206L1223.74 101.624L1208.26 101.867L1192.77 102.109L1191.6 105.668C1190.96 107.626 1189.05 113.633 1187.35 119.016L1184.26 128.805L1166.09 129.045L1147.91 129.284L1145.81 124.151C1144.66 121.326 1142.72 116.814 1141.51 114.122C1140.29 111.43 1137.58 105.223 1135.49 100.329L1131.68 91.4303H1127.83H1123.98L1123.74 110.34L1123.5 129.25H1114.62H1105.74ZM1123.97 41.3014C1123.71 41.9831 1123.61 50.3372 1123.74 59.8659L1123.98 77.1925L1129.93 77.1248L1135.89 77.0572L1139.57 74.6199L1143.25 72.1834L1145.4 67.5695L1147.55 62.9546L1147.56 57.5816L1147.57 52.2085L1145.56 48.2896L1143.56 44.3706L1140 42.557L1136.44 40.7435L1130.45 40.4036L1124.45 40.0636L1123.97 41.3014ZM1199.96 80.6763C1202.18 73.7344 1206.24 59.6745 1208.15 52.3073L1209.3 47.8891L1210.43 50.5276C1211.05 51.979 1211.57 53.7952 1211.6 54.5649C1211.62 55.3338 1212.2 57.7364 1212.9 59.9041C1216.39 70.8201 1220.62 87.4535 1220.11 88.2749L1219.54 89.2057H1208.91H1198.29V87.5728C1198.29 86.6749 1199.04 83.571 1199.96 80.6763ZM623.916 39.8058C625.797 34.3171 627.603 29.3961 627.928 28.8702L628.519 27.9136L635.722 28.1707L642.926 28.4279L645.916 37.7715C647.561 42.9105 651.118 54.1228 653.821 62.6878C656.524 71.2528 659.279 79.8622 659.943 81.82C660.606 83.7777 663.037 91.386 665.344 98.7274C667.652 106.069 670.842 116.08 672.433 120.974C674.023 125.868 675.148 130.174 674.932 130.54C674.716 130.907 670.401 131.208 665.343 131.208H656.147L655.536 129.65C655.2 128.793 653.553 123.288 651.878 117.415C650.202 111.542 648.441 105.836 647.964 104.734L647.096 102.732H631.999H616.902L612.848 115.432C610.618 122.417 608.794 128.581 608.794 129.13C608.794 129.678 608.16 130.37 607.386 130.667C605.288 131.473 593.841 131.321 593.322 130.481C593.074 130.08 593.496 127.978 594.258 125.809C595.021 123.639 597.778 115.657 600.386 108.071C602.994 100.485 608.586 84.2671 612.813 72.0314C617.039 59.7957 622.035 45.2945 623.916 39.8058ZM632.04 53.4537C628.836 65.6012 627.284 71.1202 625.188 77.8156C623.886 81.9757 622.622 86.4802 622.38 87.8266L621.94 90.2737H633.165H644.389L644.378 89.1614C644.372 88.55 643.346 84.4451 642.098 80.0402C638.42 67.0517 637.185 62.5508 635.749 56.9037C635.002 53.9671 634.067 51.213 633.67 50.784L632.95 50.0036L632.04 53.4537Z" />
  </g>
</svg>
