<svg width="1645" height="230" viewBox="0 0 1645 230" fill="none" xmlns="http://www.w3.org/2000/svg">
  <path
        d="M131.302 0.661377H120.315C117.568 0.661377 114.821 3.07534 114.821 6.179V172.052C114.821 174.121 114.478 175.846 114.134 177.57L97.3107 207.227L80.8303 177.57C80.1436 175.846 79.8003 174.121 79.8003 172.052V6.179C79.8003 3.07534 77.3968 0.661377 74.3068 0.661377H63.3199C60.2298 0.661377 57.8263 3.07534 57.8263 6.179V172.052C57.8263 174.121 57.4828 175.846 56.7963 177.57L39.9726 207.227L23.4921 177.57C22.8055 175.846 22.4621 174.121 22.4621 172.052V6.179C22.4621 3.07534 20.0587 0.661377 16.9686 0.661377H5.98168C2.8916 0.661377 0.488159 3.07534 0.488159 6.179V172.052C0.488159 179.984 2.89156 187.571 7.355 194.123L25.8956 226.884C26.5823 228.608 28.6422 229.642 30.7023 229.642H49.5862C51.6463 229.642 53.3629 228.608 54.393 226.884L68.8134 201.709L82.8904 226.884C83.9204 228.608 85.6371 229.642 87.6972 229.642H106.924C108.984 229.642 110.701 228.608 111.731 226.884L130.272 194.123C134.392 187.571 136.795 179.984 136.795 172.052V6.179C136.795 3.07534 134.392 0.661377 131.302 0.661377Z" />
  <path
        d="M213.184 0.31665C191.21 0.31665 173.356 18.2489 173.356 40.3194V224.125C173.356 227.229 176.103 229.643 178.85 229.643H189.837C192.927 229.643 195.33 227.229 195.33 224.125V125.842H230.694V224.125C230.694 227.229 233.098 229.643 236.188 229.643H247.175C250.265 229.643 252.668 227.229 252.668 224.125V40.3194C252.668 18.2489 234.815 0.31665 213.184 0.31665ZM230.694 103.772H195.33V40.3194C195.33 30.3187 203.227 22.3871 213.184 22.3871C222.798 22.3871 230.694 30.3187 230.694 40.3194V103.772Z" />
  <path
        d="M346.562 143.775V189.985C346.562 199.641 338.665 207.572 329.052 207.572H311.198V126.187H329.052C338.665 126.187 346.562 134.119 346.562 143.775ZM368.536 40.3194C368.536 18.2489 350.682 0.31665 329.052 0.31665H300.211C294.374 0.31665 289.224 5.48941 289.224 11.3519V218.607C289.224 224.815 294.374 229.643 300.211 229.643H329.052C350.682 229.643 368.536 211.71 368.536 189.985V143.775C368.536 132.395 363.729 122.394 356.176 115.152C363.729 107.91 368.536 97.5646 368.536 86.1845V40.3194ZM346.562 86.1845C346.562 96.1852 338.665 104.117 329.052 104.117H311.198V22.3871H329.052C338.665 22.3871 346.562 30.3187 346.562 40.3194V86.1845Z" />
  <path
        d="M427.066 5.83425C427.066 3.07544 424.662 0.31665 421.572 0.31665H410.585C407.495 0.31665 405.092 3.07544 405.092 5.83425C405.092 5.83425 405.092 5.83427 405.092 6.17912V224.125C405.092 227.229 407.495 229.643 410.585 229.643H421.572C424.662 229.643 427.066 227.229 427.066 224.125V5.83425Z" />
  <path
        d="M522.344 57.217H533.331C536.421 57.217 538.824 54.8031 538.824 51.6994V39.9745C538.824 18.2489 520.97 0.31665 499.34 0.31665C477.709 0.31665 459.856 18.2489 459.856 39.9745V57.5619C459.856 67.9074 459.855 67.9074 466.379 79.6324L515.82 167.224C516.85 168.949 516.85 168.949 516.85 172.742V189.985C516.85 199.985 508.953 207.917 499.34 207.917C489.726 207.917 481.829 199.985 481.829 189.985V178.26C481.829 175.501 479.426 172.742 476.336 172.742H465.349C462.259 172.742 459.856 175.501 459.856 178.26V189.985C459.856 212.055 477.709 229.643 499.34 229.643C520.97 229.643 538.824 212.055 538.824 189.985V172.742C538.824 162.741 538.824 162.741 532.301 151.017L482.86 63.4244C481.829 61.7001 481.829 61.7001 481.829 57.5619V39.9745C481.829 30.3187 489.726 22.3871 499.34 22.3871C508.953 22.3871 516.85 30.3187 516.85 39.9745V51.6994C516.85 54.8031 519.254 57.217 522.344 57.217Z" />
  <path
        d="M611.608 0.31665C589.634 0.31665 571.78 18.2489 571.78 40.3194V224.125C571.78 227.229 574.527 229.643 577.274 229.643H588.261C591.351 229.643 593.754 227.229 593.754 224.125V125.842H629.119V224.125C629.119 227.229 631.522 229.643 634.612 229.643H645.599C648.689 229.643 651.092 227.229 651.092 224.125V40.3194C651.092 18.2489 633.239 0.31665 611.608 0.31665ZM629.119 103.772H593.754V40.3194C593.754 30.3187 601.651 22.3871 611.608 22.3871C621.222 22.3871 629.119 30.3187 629.119 40.3194V103.772Z" />
  <path
        d="M744.986 143.775V189.985C744.986 199.641 737.089 207.572 727.476 207.572H709.622V126.187H727.476C737.089 126.187 744.986 134.119 744.986 143.775ZM766.96 40.3194C766.96 18.2489 749.106 0.31665 727.476 0.31665H698.635C692.798 0.31665 687.648 5.48941 687.648 11.3519V218.607C687.648 224.815 692.798 229.643 698.635 229.643H727.476C749.106 229.643 766.96 211.71 766.96 189.985V143.775C766.96 132.395 762.153 122.394 754.6 115.152C762.153 107.91 766.96 97.5646 766.96 86.1845V40.3194ZM744.986 86.1845C744.986 96.1852 737.089 104.117 727.476 104.117H709.622V22.3871H727.476C737.089 22.3871 744.986 30.3187 744.986 40.3194V86.1845Z" />
  <path
        d="M825.49 5.83425C825.49 3.07544 823.086 0.31665 819.996 0.31665H809.01C805.919 0.31665 803.516 3.07544 803.516 5.83425C803.516 5.83425 803.516 5.83427 803.516 6.17912V224.125C803.516 227.229 805.919 229.643 809.01 229.643H819.996C823.086 229.643 825.49 227.229 825.49 224.125V5.83425Z" />
  <path
        d="M994.016 86.1845C994.016 95.8404 986.119 103.772 976.505 103.772H958.651V22.3871H976.505C986.119 22.3871 994.016 30.3187 994.016 40.3194V86.1845ZM976.505 0.31665H942.514C939.424 0.31665 937.021 3.07544 937.021 5.83425C937.021 5.83425 937.021 5.83427 937.021 6.17912V103.772V125.842V224.125C937.021 227.229 939.424 229.643 942.514 229.643H953.501C956.248 229.643 958.651 227.229 958.651 224.125V125.842H976.505C998.136 125.842 1015.99 108.255 1015.99 86.1845V40.3194C1015.99 18.2489 998.136 0.31665 976.505 0.31665Z" />
  <path
        d="M1100.79 86.1845C1100.79 95.8404 1092.89 103.772 1083.28 103.772H1065.77V22.3871H1083.28C1092.89 22.3871 1100.79 30.3187 1100.79 40.3194V86.1845ZM1122.76 40.3194C1122.76 18.2489 1105.25 0.31665 1083.28 0.31665H1054.78C1048.6 0.31665 1043.8 5.48941 1043.8 11.3519V224.125C1043.8 227.229 1046.2 229.643 1049.29 229.643H1060.28C1063.02 229.643 1065.77 227.229 1065.77 224.125V125.842H1083.28C1092.89 125.842 1100.79 133.774 1100.79 143.775V224.125C1100.79 227.229 1103.19 229.643 1106.28 229.643H1117.27C1120.36 229.643 1122.76 227.229 1122.76 224.125V143.775C1122.76 132.395 1118.3 122.049 1110.75 114.807C1118.3 107.565 1122.76 97.5646 1122.76 86.1845V40.3194Z" />
  <path
        d="M1216.71 189.985C1216.71 199.641 1208.81 207.572 1199.2 207.572C1189.24 207.572 1181.34 199.641 1181.34 189.985V40.3194C1181.34 30.3187 1189.24 22.3871 1199.2 22.3871C1208.81 22.3871 1216.71 30.3187 1216.71 40.3194V189.985ZM1199.2 0.31665C1177.22 0.31665 1159.37 18.2489 1159.37 40.3194V189.985C1159.37 212.055 1177.22 229.643 1199.2 229.643C1220.83 229.643 1238.68 212.055 1238.68 189.985V40.3194C1238.68 18.2489 1220.83 0.31665 1199.2 0.31665Z" />
  <path
        d="M1340.81 0.31665H1329.82C1327.07 0.31665 1324.33 2.73059 1324.33 5.83425V189.985C1324.33 199.641 1316.43 207.572 1306.82 207.572C1297.2 207.572 1289.31 199.641 1289.31 189.985V177.225C1289.31 174.122 1286.9 171.708 1283.81 171.708H1272.83C1269.74 171.708 1267.33 174.122 1267.33 177.225V189.985C1267.33 211.71 1285.19 229.643 1306.82 229.643C1328.79 229.643 1346.3 211.71 1346.3 189.985V5.83425C1346.3 2.73059 1343.9 0.31665 1340.81 0.31665Z" />
  <path
        d="M1434.38 22.3871C1437.47 22.3871 1439.87 19.9732 1439.87 16.8695V5.83425C1439.87 3.07544 1437.47 0.31665 1434.38 0.31665H1393.52C1387.34 0.31665 1382.53 5.48941 1382.53 11.3519V218.607C1382.53 224.815 1387.34 229.643 1393.52 229.643H1434.38C1437.47 229.643 1439.87 227.229 1439.87 224.125V213.09C1439.87 210.331 1437.47 207.572 1434.38 207.572H1404.5V126.187H1434.38C1437.47 126.187 1439.87 123.428 1439.87 120.67V109.634C1439.87 106.531 1437.47 104.117 1434.38 104.117H1404.5V22.3871H1434.38Z" />
  <path
        d="M1538.76 57.217H1549.74C1552.83 57.217 1555.24 54.8031 1555.24 51.6994V39.9745C1555.24 18.2489 1537.38 0.31665 1515.75 0.31665C1493.78 0.31665 1476.27 18.2489 1476.27 39.9745V189.985C1476.27 211.71 1493.78 229.643 1515.75 229.643C1537.38 229.643 1555.24 211.71 1555.24 189.985V177.225C1555.24 174.122 1552.83 171.708 1549.74 171.708H1538.76C1535.67 171.708 1533.26 174.122 1533.26 177.225V189.985C1533.26 199.641 1525.37 207.572 1515.75 207.572C1506.14 207.572 1498.24 199.641 1498.24 189.985V39.9745C1498.24 30.3187 1506.14 22.3871 1515.75 22.3871C1525.37 22.3871 1533.26 30.3187 1533.26 39.9745V51.6994C1533.26 54.8031 1535.67 57.217 1538.76 57.217Z" />
  <path
        d="M1638.92 0.31665H1586.04C1582.95 0.31665 1580.55 3.07544 1580.55 5.83425V16.8695C1580.55 19.9732 1582.95 22.3871 1586.04 22.3871H1601.49V224.125C1601.49 227.229 1603.9 229.643 1606.99 229.643H1617.97C1621.06 229.643 1623.47 227.229 1623.47 224.125V22.3871H1638.92C1642.01 22.3871 1644.41 19.9732 1644.41 16.8695V5.83425C1644.41 3.07544 1642.01 0.31665 1638.92 0.31665Z" />
</svg>