<svg width="632" height="632" viewBox="0 0 632 632" fill="none" xmlns="http://www.w3.org/2000/svg">
  <path
        d="M315.998 0.000568288C141.587 0.000568288 0 141.525 0 315.987C0 490.449 141.587 632 315.998 632C489.93 632 631.089 491.19 631.865 317.389C631.956 316.927 632.001 316.458 632 315.987C632.001 315.516 631.956 315.047 631.865 314.585C631.857 314.558 631.848 314.532 631.838 314.505C631.018 140.743 489.902 -6.77151e-05 315.998 0L315.998 0.000568288ZM315.998 14.3371C482.77 14.3371 617.757 149.325 617.757 315.987C617.757 482.649 482.77 617.664 315.998 617.663C149.227 617.663 14.2394 482.649 14.2394 315.987C14.2394 149.325 149.227 14.3372 315.998 14.3371Z" />
  <path
        d="M212.346 118.714C208.771 118.714 206.214 120.238 204.355 122.1C202.497 123.963 201.002 126.499 201.002 130.082V416.96C201.002 417.58 200.627 433.866 209.778 448.386L242.761 506.513C244.967 510.937 249.596 513.286 253.791 513.286H276.085C279.353 513.286 280.642 512.386 282.241 511.317C283.841 510.249 285.382 508.724 286.485 506.513L316.272 454.95L346.347 506.985L346.111 506.513C346.685 507.665 347.527 509.297 349.491 510.871C351.454 512.445 354.414 513.286 356.512 513.286H378.78C382.974 513.286 387.604 510.932 389.809 506.513L389.6 506.933L422.976 448.071V448.044C427.089 440.916 429.13 433.57 430.259 427.829C430.823 424.955 431.144 422.477 431.333 420.635C431.521 418.793 431.595 418.596 431.595 416.959V130.082C431.595 122.911 425.422 118.714 419.622 118.714H418.391C414.816 118.714 412.259 120.238 410.401 122.1C408.542 123.963 407.048 126.499 407.048 130.082V416.96C407.048 416.96 406.638 428.237 402.07 436.021L402.043 436.047L371.811 488.687H363.532L333.195 435.339L333.088 435.181C328.75 428.225 328.268 416.961 328.268 416.961V130.082C328.268 126.496 326.746 123.962 324.888 122.1C323.03 120.239 320.475 118.714 316.898 118.714H315.666C309.867 118.714 303.694 122.914 303.694 130.082V416.96C303.694 416.96 303.288 428.445 299.162 436.309C299.151 436.33 299.172 436.342 299.162 436.362L268.511 488.686H260.808L230.471 435.338L230.391 435.18C226.052 428.224 225.544 416.96 225.544 416.96V130.082C225.544 126.496 224.023 123.962 222.165 122.1C220.307 120.239 217.778 118.714 214.201 118.714H212.346Z" />
</svg>