<svg width="1623" height="601" viewBox="0 0 1623 601" fill="none" xmlns="http://www.w3.org/2000/svg">
  <path
        d="M227.409 0.595459H208.358C203.595 0.595459 198.832 4.76303 198.832 10.1213V296.492C198.832 300.064 198.236 303.041 197.641 306.018L168.468 357.219L139.891 306.018C138.7 303.041 138.105 300.064 138.105 296.492V10.1213C138.105 4.76303 133.937 0.595459 128.579 0.595459H109.527C104.169 0.595459 100.001 4.76303 100.001 10.1213V296.492C100.001 300.064 99.4057 303.041 98.2152 306.018L69.0424 357.219L40.4649 306.018C39.2742 303.041 38.6788 300.064 38.6788 296.492V10.1213C38.6788 4.76303 34.5112 0.595459 29.1529 0.595459H10.1013C4.74307 0.595459 0.575439 4.76303 0.575439 10.1213V296.492C0.575439 310.185 4.743 323.283 12.4827 334.595L44.6326 391.155C45.8233 394.132 49.3953 395.918 52.9675 395.918H85.7127C89.2849 395.918 92.2617 394.132 94.0478 391.155L119.053 347.693L143.463 391.155C145.249 394.132 148.226 395.918 151.798 395.918H185.139C188.711 395.918 191.688 394.132 193.474 391.155L225.623 334.595C232.768 323.283 236.935 310.185 236.935 296.492V10.1213C236.935 4.76303 232.768 0.595459 227.409 0.595459Z" />
  <path
        d="M396.803 0C358.699 0 327.74 30.959 327.74 69.0623V386.392C327.74 391.75 332.503 395.917 337.266 395.917H356.318C361.676 395.917 365.844 391.75 365.844 386.392V216.713H427.166V386.392C427.166 391.75 431.334 395.917 436.692 395.917H455.744C461.102 395.917 465.269 391.75 465.269 386.392V69.0623C465.269 30.959 434.311 0 396.803 0ZM427.166 178.609H365.844V69.0623C365.844 51.7967 379.537 38.1033 396.803 38.1033C413.473 38.1033 427.166 51.7967 427.166 69.0623V178.609Z" />
  <path
        d="M655.491 247.672V327.451C655.491 344.121 641.798 357.814 625.128 357.814H594.169V217.308H625.128C641.798 217.308 655.491 231.001 655.491 247.672ZM693.595 69.0623C693.595 30.959 662.636 0 625.128 0H575.117C564.996 0 556.065 8.93046 556.065 19.0517V376.866C556.065 387.582 564.996 395.917 575.117 395.917H625.128C662.636 395.917 693.595 364.958 693.595 327.451V247.672C693.595 228.025 685.259 210.759 672.161 198.256C685.259 185.754 693.595 167.893 693.595 148.246V69.0623ZM655.491 148.246C655.491 165.511 641.798 179.205 625.128 179.205H594.169V38.1033H625.128C641.798 38.1033 655.491 51.7967 655.491 69.0623V148.246Z" />
  <path
        d="M822.494 9.5258C822.494 4.76289 818.326 0 812.968 0H793.916C788.558 0 784.39 4.76289 784.39 9.5258C784.39 9.5258 784.39 9.52583 784.39 10.1212V386.392C784.39 391.75 788.558 395.917 793.916 395.917H812.968C818.326 395.917 822.494 391.75 822.494 386.392V9.5258Z" />
  <path
        d="M1015.12 98.2351H1034.17C1039.53 98.2351 1043.69 94.0676 1043.69 88.7093V68.4669C1043.69 30.9589 1012.73 0 975.226 0C937.718 0 906.759 30.9589 906.759 68.4669V98.8305C906.759 116.691 906.759 116.691 918.071 136.934L1003.8 288.156C1005.59 291.133 1005.59 291.133 1005.59 297.682V327.451C1005.59 344.716 991.896 358.409 975.226 358.409C958.556 358.409 944.863 344.716 944.863 327.451V307.208C944.863 302.445 940.695 297.682 935.337 297.682H916.285C910.927 297.682 906.759 302.445 906.759 307.208V327.451C906.759 365.554 937.718 395.917 975.226 395.917C1012.73 395.917 1043.69 365.554 1043.69 327.451V297.682C1043.69 280.417 1043.69 280.417 1032.38 260.174L946.649 108.952C944.862 105.975 944.863 105.975 944.863 98.8305V68.4669C944.863 51.7967 958.556 38.1033 975.226 38.1033C991.896 38.1033 1005.59 51.7967 1005.59 68.4669V88.7093C1005.59 94.0676 1009.76 98.2351 1015.12 98.2351Z" />
  <path
        d="M1197.31 0C1159.21 0 1128.25 30.959 1128.25 69.0623V386.392C1128.25 391.75 1133.01 395.917 1137.77 395.917H1156.82C1162.18 395.917 1166.35 391.75 1166.35 386.392V216.713H1227.67V386.392C1227.67 391.75 1231.84 395.917 1237.2 395.917H1256.25C1261.61 395.917 1265.78 391.75 1265.78 386.392V69.0623C1265.78 30.959 1234.82 0 1197.31 0ZM1227.67 178.609H1166.35V69.0623C1166.35 51.7967 1180.04 38.1033 1197.31 38.1033C1213.98 38.1033 1227.67 51.7967 1227.67 69.0623V178.609Z" />
  <path
        d="M1456 247.672V327.451C1456 344.121 1442.3 357.814 1425.63 357.814H1394.68V217.308H1425.63C1442.3 217.308 1456 231.001 1456 247.672ZM1494.1 69.0623C1494.1 30.959 1463.14 0 1425.63 0H1375.62C1365.5 0 1356.57 8.93046 1356.57 19.0517V376.866C1356.57 387.582 1365.5 395.917 1375.62 395.917H1425.63C1463.14 395.917 1494.1 364.958 1494.1 327.451V247.672C1494.1 228.025 1485.77 210.759 1472.67 198.256C1485.77 185.754 1494.1 167.893 1494.1 148.246V69.0623ZM1456 148.246C1456 165.511 1442.3 179.205 1425.63 179.205H1394.68V38.1033H1425.63C1442.3 38.1033 1456 51.7967 1456 69.0623V148.246Z" />
  <path
        d="M1623 9.5258C1623 4.76289 1618.83 0 1613.47 0H1594.42C1589.06 0 1584.9 4.76289 1584.9 9.5258C1584.9 9.5258 1584.9 9.52583 1584.9 10.1212V386.392C1584.9 391.75 1589.06 395.917 1594.42 395.917H1613.47C1618.83 395.917 1623 391.75 1623 386.392V9.5258Z" />
  <path
        d="M256.184 506.221C256.184 514.445 249.662 520.967 241.722 520.967H226.977V478.148H241.722C249.662 478.148 256.184 484.67 256.184 492.61V506.221ZM241.722 460H213.366C211.097 460 208.829 461.985 208.829 464.537V520.967V539.115V595.828C208.829 598.096 211.097 600.365 213.366 600.365H222.44C224.992 600.365 226.977 598.096 226.977 595.828V539.115H241.722C259.587 539.115 274.332 524.369 274.332 506.221V492.61C274.332 474.745 259.587 460 241.722 460Z" />
  <path
        d="M472.187 492.61C472.187 474.745 457.725 460 439.577 460H416.041C410.937 460 406.967 463.97 406.967 469.074V595.828C406.967 598.096 408.952 600.365 411.504 600.365H420.578C422.847 600.365 425.115 598.096 425.115 595.828V539.115H439.577C447.517 539.115 454.039 545.637 454.039 553.577V595.828C454.039 598.096 456.024 600.365 458.576 600.365H467.65C470.202 600.365 472.187 598.096 472.187 595.828V553.577C472.187 544.219 468.501 535.995 462.262 530.041C468.501 524.086 472.187 515.579 472.187 506.221V492.61ZM454.039 506.221C454.039 514.445 447.517 520.967 439.577 520.967H425.115V478.148H439.577C447.517 478.148 454.039 484.67 454.039 492.61V506.221Z" />
  <path
        d="M652.875 567.471C652.875 575.695 646.353 582.217 638.414 582.217C630.19 582.217 623.668 575.695 623.668 567.471V492.61C623.668 484.67 630.19 478.148 638.414 478.148C646.353 478.148 652.875 484.67 652.875 492.61V567.471ZM638.414 460C620.266 460 605.52 474.745 605.52 492.61V567.471C605.52 585.619 620.266 600.365 638.414 600.365C656.278 600.365 671.024 585.619 671.024 567.471V492.61C671.024 474.745 656.278 460 638.414 460Z" />
  <path
        d="M871.852 460H862.777C860.509 460 858.24 461.985 858.24 464.537V567.755C858.24 575.695 852.002 582.217 843.779 582.217C835.839 582.217 829.317 575.695 829.317 567.755V557.263C829.317 554.711 827.332 552.726 824.78 552.726H815.706C813.437 552.726 811.169 554.711 811.169 557.263V567.755C811.169 585.619 825.914 600.365 843.779 600.365C861.927 600.365 876.389 585.619 876.389 567.755V464.537C876.389 461.985 874.404 460 871.852 460Z" />
  <path
        d="M1052.23 478.148C1054.78 478.148 1056.77 476.163 1056.77 473.611V464.537C1056.77 461.985 1054.78 460 1052.23 460H1018.49C1013.38 460 1009.41 463.97 1009.41 469.074V591.291C1009.41 596.111 1013.38 600.365 1018.49 600.365H1052.23C1054.78 600.365 1056.77 598.38 1056.77 595.828V586.754C1056.77 584.202 1054.78 582.217 1052.23 582.217H1027.56V539.115H1052.23C1054.78 539.115 1056.77 537.13 1056.77 534.578V525.504C1056.77 522.951 1054.78 520.967 1052.23 520.967H1027.56V478.148H1052.23Z" />
  <path
        d="M1248.39 506.788H1257.47C1260.02 506.788 1262 504.803 1262 502.251V492.61C1262 474.745 1247.26 460 1229.39 460C1211.25 460 1196.78 474.745 1196.78 492.61V567.755C1196.78 585.619 1211.25 600.365 1229.39 600.365C1247.26 600.365 1262 585.619 1262 567.755V557.263C1262 554.711 1260.02 552.726 1257.47 552.726H1248.39C1245.84 552.726 1243.86 554.711 1243.86 557.263V567.755C1243.86 575.695 1237.33 582.217 1229.39 582.217C1221.45 582.217 1214.93 575.695 1214.93 567.755V492.61C1214.93 484.67 1221.45 478.148 1229.39 478.148C1237.33 478.148 1243.86 484.67 1243.86 492.61V502.251C1243.86 504.803 1245.84 506.788 1248.39 506.788Z" />
  <path
        d="M1429.32 460H1385.65C1383.1 460 1381.11 461.985 1381.11 464.537V473.611C1381.11 476.163 1383.1 478.148 1385.65 478.148H1398.41V595.828C1398.41 598.096 1400.4 600.365 1402.95 600.365H1412.02C1414.57 600.365 1416.56 598.096 1416.56 595.828V478.148H1429.32C1431.87 478.148 1433.86 476.163 1433.86 473.611V464.537C1433.86 461.985 1431.87 460 1429.32 460Z" />
</svg>